<svg id="Capa_1" enable-background="new 0 0 512 512" height="512" viewBox="0 0 512 512" width="512" xmlns="http://www.w3.org/2000/svg"><g><path d="m337.638 94.504c-27.045 0-52.315 7.978-73.801 21.814-4.799 3.09-10.877 3.09-15.676 0-21.486-13.836-46.756-21.814-73.801-21.814-78.127 0-141.461 66.559-141.461 148.666.001 122.447 54.213 281.591 195.01 268.016 0 0 10.717-1.328 22.158-6.403 3.792-1.682 8.071-1.682 11.863 0 11.44 5.075 22.158 6.403 22.158 6.403 140.797 13.575 195.009-145.569 195.011-268.017 0-82.106-63.335-148.665-141.461-148.665z" fill="#e94444"/><g><path d="m253.439 167.481c-10.745 0-21.486-3.505-29.767-10.55-3.259-2.773-3.654-7.664-.88-10.923 2.773-3.259 7.662-3.654 10.923-.881 11.028 9.384 29.439 9.125 40.201-.567 3.178-2.864 8.078-2.609 10.945.573 2.864 3.18 2.607 8.08-.572 10.944-8.427 7.59-19.641 11.404-30.85 11.404z" fill="#cc2121"/></g><path d="m479.102 243.174c0 120.732-52.705 277.14-189.151 268.482 120.711-8.018 167.919-154.229 167.919-268.482 0-78.349-57.664-142.533-130.816-148.257 3.492-.279 7.016-.413 10.58-.413 78.131 0 141.468 66.56 141.468 148.67z" fill="#d83131"/><path d="m331.236 107.274c8.42-4.481 16.02-10.617 22.433-17.635 10.019-10.963 16.715-24.608 18.336-39.381.179-1.634-.624-3.224-2.047-4.047-12.688-7.341-27.427-10.062-42.006-8.606-11.853 1.183-24.138 4.58-34.06 11.429-15.802 10.908-28.626 27.167-32.69 46.306-.721 3.395-3.091 10.177.963 12.384 3.65 1.988 7.489 3.627 11.448 4.896 18.56 5.952 40.339 3.852 57.623-5.346z" fill="#00c27a"/><path d="m372.008 50.259c-1.622 14.775-8.317 28.414-18.34 39.376-6.416 7.026-14.01 13.163-22.431 17.637-17.286 9.196-39.066 11.303-57.623 5.352-3.957-1.271-7.801-2.914-11.448-4.897-1.436-.785-2.273-2.335-2.139-3.957.103-1.281.207-2.614.248-2.924.021-.145.031-.279.062-.424 18.154 5.28 39.118 3.028 55.856-5.889 8.421-4.474 16.015-10.611 22.431-17.627 9.371-10.249 15.839-22.855 17.957-36.524 4.639 1.426 9.123 3.368 13.38 5.827 1.417.826 2.223 2.417 2.047 4.05z" fill="#08b865"/><path d="m237.466 118.227c-2.685-18.382-6.289-68.124-2.931-98.608 1.512-13.726 15.096-22.713 28.285-18.623.189.059.378.117.567.175 10.561 3.245 17.014 13.877 15.097 24.758-3.382 19.202-7.772 65.075-8.084 90.056-.114 9.09-7.461 16.419-16.551 16.419-8.227 0-15.194-6.037-16.383-14.177z" fill="#d77f4a"/><path d="m278.481 25.927c-3.379 19.207-7.77 65.072-8.08 90.055-.114 9.092-7.46 16.418-16.552 16.418-3.823 0-7.388-1.302-10.208-3.523 3.823-2.996 6.292-7.656 6.354-12.895.31-24.983 4.701-70.848 8.08-90.055 1.715-9.702-3.234-19.208-11.81-23.444 4.887-2.562 10.756-3.286 16.552-1.488.186.062.382.114.568.176 10.561 3.244 17.018 13.876 15.096 24.756z" fill="#c86d36"/></g></svg>