<?xml version="1.0" encoding="iso-8859-1"?>
<!-- Generator: Adobe Illustrator 16.0.0, SVG Export Plug-In . SVG Version: 6.00 Build 0)  -->
<!DOCTYPE svg PUBLIC "-//W3C//DTD SVG 1.1//EN" "http://www.w3.org/Graphics/SVG/1.1/DTD/svg11.dtd">
<svg version="1.1" id="Capa_1" xmlns="http://www.w3.org/2000/svg" xmlns:xlink="http://www.w3.org/1999/xlink" x="0px" y="0px"
	 width="939.424px" height="939.424px" viewBox="0 0 939.424 939.424" style="enable-background:new 0 0 939.424 939.424;"
	 xml:space="preserve">
<g>
	<path d="M350.884,656.586c38.851-0.433,77.05-6.291,113.612-17.46c37.916-11.583,73.077-28.56,104.504-50.458
		c47.864-33.353,86.619-75.843,115.196-126.297c1.828-3.592,3.67-7.338,5.703-11.483c9.754-19.901,18.709-41.32,25.893-61.944
		c1.756-5.042,3.309-11.025,4.953-17.37c4.723-18.211,10.945-42.208,28.168-62.844l-7.68-73.069
		c-1.506-14.311,0.322-29.569,5.146-42.964c6.906-19.185,19.873-33.996,36.506-41.703c5.273-2.443,11.012-3.706,16.816-3.706
		c0.291,0,0.582,0.003,0.875,0.01c1.307,0.029,8.816,0.237,19.521,1.385c4.199-25.405,8.824-53.402,9.281-56.169
		c-9.787-33.355-75.826-54.011-78.969-54.974c-11.82,2.044-25.621,15.453-29.215,37.217l-15.215,92.059l-0.266,0.104
		c-0.121,0.047-0.24,0.093-0.361,0.136l-0.152,0.058c-1.732,0.696-3.793,1.555-5.863,2.615c-18.922,9.68-29.032,27.248-38.81,44.237
		c-3.529,6.133-7.178,12.471-11.147,18.228c-13.306,19.295-28.66,38.9-44.403,56.696c-3.396,3.841-6.46,7.294-9.551,10.672
		c-45.396,45.723-99.354,79.85-160.389,101.447c-88.524,31.318-188.679,31.196-282.014-0.345
		c-5.914-1.999-11.866-4.148-17.691-6.391c-6.391-2.46-14.345-5.521-22.827-8.389c-14.666-4.957-33.424-10.296-51.523-10.296
		c-11.206,0-22.159,2.047-31.737,7.493c-8.25,4.692-14.983,11.662-20.011,20.717c-19.779,35.604-4.496,64.597,14.967,90.619
		c17.692,23.657,37.951,44.465,60.216,61.844c42.604,33.284,90.118,58.919,141.223,76.189
		C266.64,646.308,308.765,654.338,350.884,656.586z"/>
	<path d="M901.441,318.838c0,0-10.043-95.532-10.426-99.157c-13.486-21.987-54.225-29.088-76.451-31.354
		c-0.166-0.017-0.334-0.035-0.498-0.051c-0.17-0.017-0.332-0.032-0.5-0.048c-8.359-0.819-13.863-0.941-13.863-0.941
		c-15.293,7.085-20.312,28.741-18.689,44.19l9.723,92.512c-0.1,0.074-0.197,0.147-0.299,0.217l-0.141,0.103
		c-1.5,1.141-3.266,2.521-5.004,4.112c-15.783,14.453-20.891,34.146-25.828,53.191c-1.773,6.837-3.605,13.906-5.9,20.492
		c-7.703,22.113-17.299,45.07-27.75,66.389c-2.248,4.588-4.281,8.723-6.375,12.815c-12.387,21.974-26.523,42.576-42.322,61.741
		c-0.656,0.797-1.312,1.596-1.974,2.388c-0.698,0.835-1.405,1.662-2.11,2.491c-23.562,27.714-50.688,52.319-81.165,73.558
		c-70.128,48.864-156.495,75.142-245.617,75.142c-8.673,0-17.355-0.249-26.068-0.749c-6.221-0.356-12.522-0.851-18.731-1.467
		c-6.825-0.677-15.319-1.52-24.255-2.034c-4.928-0.282-10.27-0.493-15.822-0.493c-22.75,0-49.091,3.527-65.581,20.024
		c-6.775,6.779-11.463,15.364-13.932,25.518c-9.691,39.854,12.849,63.885,38.65,83.917c23.369,18.143,48.462,32.853,74.579,43.72
		c49.959,20.812,102.626,32.936,156.538,36.035c9.13,0.524,18.253,0.786,27.333,0.786c105.794,0,207.428-35.391,288.77-101.054
		c129.25-104.322,192.664-270.739,165.496-434.305C929.99,347.029,918.447,329.752,901.441,318.838z"/>
</g>
<g>
</g>
<g>
</g>
<g>
</g>
<g>
</g>
<g>
</g>
<g>
</g>
<g>
</g>
<g>
</g>
<g>
</g>
<g>
</g>
<g>
</g>
<g>
</g>
<g>
</g>
<g>
</g>
<g>
</g>
</svg>
