<?xml version="1.0" encoding="iso-8859-1"?>
<!-- Generator: Adobe Illustrator 19.0.0, SVG Export Plug-In . SVG Version: 6.00 Build 0)  -->
<svg version="1.1" id="Capa_1" xmlns="http://www.w3.org/2000/svg" xmlns:xlink="http://www.w3.org/1999/xlink" x="0px" y="0px"
	 viewBox="0 0 409.6 409.6" style="enable-background:new 0 0 409.6 409.6;" xml:space="preserve">
<g>
	<path style="fill:#F6C358;" d="M0,230.888C27.648,272.36,69.12,304.616,120.832,321c119.296,37.376,238.592-23.552,269.824-145.408
		c0,0,4.096-31.744-0.512-57.344l-20.992-6.656c0,0-113.152,171.008-351.232,91.648l-17.408,9.728L0,230.888z"/>
	<path style="fill:#F6C358;" d="M46.592,331.752c38.912,31.232,88.064,50.176,141.824,50.176
		c124.928,0,220.672-93.696,214.528-219.136c0,0-5.632-31.744-17.408-54.272H363.52c0,0-57.344,197.12-308.224,192l-13.824,14.336
		L46.592,331.752z"/>
</g>
<path style="fill:#3EA69B;" d="M364.032,108.008c0,0,12.288-73.216,6.656-78.336c0,0,20.992-11.264,38.912,19.968
	c0,0-27.136,24.064-23.552,58.368H364.032z"/>
<path style="fill:#FCD462;" d="M376.32,108.008h-12.8c0,0-57.344,197.12-308.224,192l-13.824,14.336
	C41.984,314.344,364.032,423.912,376.32,108.008z"/>
<path style="fill:#44C4A1;" d="M376.32,108.008h-12.8c0,0,12.288-73.216,6.656-78.336c0,0,9.728-5.12,21.504,1.024
	C392.192,31.208,379.392,74.216,376.32,108.008z"/>
<g>
</g>
<g>
</g>
<g>
</g>
<g>
</g>
<g>
</g>
<g>
</g>
<g>
</g>
<g>
</g>
<g>
</g>
<g>
</g>
<g>
</g>
<g>
</g>
<g>
</g>
<g>
</g>
<g>
</g>
</svg>
