<?xml version="1.0" encoding="iso-8859-1"?>
<!-- Generator: Adobe Illustrator 19.0.0, SVG Export Plug-In . SVG Version: 6.00 Build 0)  -->
<svg version="1.1" id="Capa_1" xmlns="http://www.w3.org/2000/svg" xmlns:xlink="http://www.w3.org/1999/xlink" x="0px" y="0px"
	 viewBox="0 0 511.99 511.99" style="enable-background:new 0 0 511.99 511.99;" xml:space="preserve">
<circle style="fill:#744EAA;" cx="451.47" cy="411.426" r="60.52"/>
<path style="fill:#67449E;" d="M458.328,470.367c-32.552-7.577-52.798-40.109-45.22-72.661
	c5.679-24.395,25.372-41.877,48.586-45.918c-31.354-5.403-61.858,14.532-69.164,45.918c-7.577,32.552,12.668,65.083,45.22,72.661
	c8.157,1.899,16.312,2.049,24.074,0.698C460.66,470.864,459.494,470.639,458.328,470.367z"/>
<path style="fill:#93603E;" d="M172.053,169.022c1.505,0.35,2.979,0.765,4.429,1.221c0.593-2.533,1.355-4.98,2.241-7.355
	C117.938,93.787,42.339,68.364,14.9,61.717C9.09,60.31,3.479,64.38,3.003,70.315l-2.977,37.101c-0.407,5.074,3.959,9.33,9.007,8.745
	c62.963-7.295,121.331,24.772,158.144,51.952C168.801,168.353,170.426,168.643,172.053,169.022z"/>
<path style="fill:#7F573C;" d="M148.749,133.05C112.325,109.657,62.328,87.631,9.034,93.805c-3.133,0.363-6.001-1.141-7.631-3.545
	l-1.377,17.156c-0.407,5.074,3.959,9.33,9.007,8.745c62.963-7.295,121.331,24.772,158.144,51.952
	c1.623,0.241,3.249,0.531,4.875,0.909c1.506,0.35,2.979,0.765,4.429,1.22c0.593-2.533,1.355-4.98,2.241-7.355
	C169.024,151.862,158.947,141.953,148.749,133.05z"/>
<path style="fill:#3BBC56;" d="M83.067,284.142c7.706-9.393,18.096-16.257,29.723-19.645c1.882,2.214-20.481-19.894-12.856-52.653
	c5.358-23.018,23.29-39.825,44.841-44.875c-28.386-9.372-68.967-11.869-111.454,13.864c-3.688,2.234-4.446,7.277-1.521,10.445
	c5.956,6.453,16.773,16.835,31.348,25.34c3.82,2.229,4.338,7.473,1.036,10.415c-12.046,10.734-23.214,24.926-32.267,43.656
	c-1.876,3.881,0.238,8.528,4.415,9.592C45.607,282.642,64.322,285.768,83.067,284.142z"/>
<path style="fill:#30AA44;" d="M58.169,280.28c-4.177-1.063-6.291-5.711-4.415-9.592c9.053-18.73,20.221-32.922,32.267-43.655
	c3.302-2.942,2.784-8.186-1.036-10.415c-14.575-8.505-25.392-18.887-31.348-25.34c-2.925-3.168-2.167-8.211,1.521-10.445
	c20.775-12.583,41.09-18.404,59.751-19.984c-24.066-2.056-52.376,2.292-81.588,19.984c-3.688,2.234-4.446,7.277-1.521,10.445
	c5.956,6.453,16.773,16.835,31.348,25.34c3.82,2.23,4.338,7.473,1.036,10.415c-12.046,10.734-23.214,24.926-32.267,43.655
	c-1.876,3.881,0.238,8.528,4.415,9.592c9.254,2.357,27.905,5.472,46.609,3.87C72.652,283.372,63.717,281.693,58.169,280.28z"/>
<path style="fill:#3BBC56;" d="M248.579,125.439c3.422,0.796,6.7,1.881,9.829,3.204c7.702-11.945,19.4-20.697,32.789-24.842
	c3.426-23.897-3.962-47.939-7.506-59.05c-1.31-4.107-6.074-5.941-9.837-3.838c-18.159,10.149-31.663,22.139-41.663,34.801
	c-2.741,3.471-8.006,3.265-10.458-0.415c-9.356-14.044-20.361-24.226-27.156-29.789c-3.337-2.731-8.325-1.676-10.336,2.138
	c-23.516,44.605-17.203,85.46-5.809,113.335C189.447,134.263,219.515,118.674,248.579,125.439z"/>
<path style="fill:#30AA44;" d="M202.547,52.579c-2.977-2.846-5.709-5.219-7.97-7.069c-3.336-2.731-8.325-1.676-10.336,2.138
	c-23.516,44.604-17.203,85.46-5.809,113.335c3.247-7.878,8.161-14.778,14.207-20.433C186.782,115.968,186.741,85.396,202.547,52.579
	z"/>
<circle style="fill:#744EAA;" cx="307.53" cy="160.006" r="60.52"/>
<path style="fill:#67449E;" d="M314.387,218.949c-32.552-7.577-52.798-40.109-45.22-72.661
	c5.679-24.395,25.372-41.877,48.586-45.918c-31.354-5.403-61.858,14.532-69.164,45.918c-7.577,32.552,12.668,65.083,45.22,72.661
	c8.157,1.899,16.312,2.049,24.074,0.698C316.718,219.446,315.553,219.22,314.387,218.949z"/>
<circle style="fill:#744EAA;" cx="241.01" cy="356.526" r="60.52"/>
<path style="fill:#67449E;" d="M247.873,415.467c-32.552-7.577-52.798-40.109-45.22-72.66c5.679-24.395,25.372-41.877,48.586-45.918
	c-31.354-5.403-61.858,14.532-69.164,45.918c-7.577,32.552,12.668,65.083,45.22,72.66c8.157,1.899,16.312,2.049,24.074,0.698
	C250.205,415.964,249.039,415.738,247.873,415.467z"/>
<circle style="fill:#744EAA;" cx="127.34" cy="321.726" r="60.52"/>
<path style="fill:#67449E;" d="M134.202,380.664c-32.552-7.577-52.798-40.109-45.22-72.661
	c5.679-24.395,25.372-41.877,48.586-45.918c-31.354-5.403-61.858,14.532-69.164,45.918c-7.577,32.552,12.668,65.083,45.22,72.661
	c8.157,1.899,16.312,2.049,24.074,0.698C136.533,381.161,135.368,380.935,134.202,380.664z"/>
<circle style="fill:#553788;" cx="233.25" cy="181.426" r="60.52"/>
<path style="fill:#462E7A;" d="M240.132,240.368c-32.552-7.577-52.798-40.109-45.22-72.661
	c5.678-24.391,25.366-41.871,48.574-45.916c-31.359-5.412-61.872,14.525-69.179,45.916c-7.577,32.552,12.668,65.083,45.22,72.661
	c8.161,1.9,16.321,2.049,24.086,0.695C242.453,240.863,241.293,240.638,240.132,240.368z"/>
<circle style="fill:#9266CC;" cx="319.48" cy="240.436" r="60.06"/>
<path style="fill:#7B54BA;" d="M326.466,298.931c-32.309-7.521-52.403-39.809-44.883-72.118c5.63-24.185,25.139-41.523,48.145-45.56
	c-31.155-5.424-61.49,14.374-68.75,45.56c-7.521,32.309,12.574,64.597,44.883,72.118c8.124,1.891,16.246,2.033,23.974,0.677
	C328.712,299.413,327.59,299.193,326.466,298.931z"/>
<circle style="fill:#9266CC;" cx="412.2" cy="324.056" r="60.06"/>
<path style="fill:#7B54BA;" d="M419.185,382.553c-32.309-7.521-52.403-39.809-44.883-72.118c5.63-24.185,25.139-41.523,48.145-45.56
	c-31.155-5.424-61.49,14.374-68.75,45.56c-7.521,32.309,12.574,64.597,44.883,72.118c8.124,1.891,16.246,2.033,23.974,0.677
	C421.431,383.035,420.309,382.815,419.185,382.553z"/>
<circle style="fill:#9266CC;" cx="354" cy="403.526" r="60.06"/>
<path style="fill:#7B54BA;" d="M360.988,462.024c-32.309-7.521-52.403-39.809-44.883-72.118c5.63-24.185,25.139-41.523,48.145-45.56
	c-31.155-5.424-61.49,14.374-68.75,45.56c-7.521,32.309,12.574,64.597,44.883,72.118c8.124,1.891,16.246,2.033,23.974,0.677
	C363.234,462.505,362.111,462.285,360.988,462.024z"/>
<circle style="fill:#9266CC;" cx="156.37" cy="225.466" r="60.06"/>
<path style="fill:#7B54BA;" d="M163.354,283.961c-32.309-7.521-52.403-39.809-44.883-72.118c5.63-24.185,25.139-41.523,48.145-45.56
	c-31.155-5.424-61.49,14.374-68.75,45.56c-7.521,32.309,12.574,64.597,44.883,72.118c8.124,1.891,16.246,2.033,23.974,0.677
	C165.6,284.443,164.477,284.223,163.354,283.961z"/>
<circle style="fill:#AA8DD8;" cx="228.98" cy="284.596" r="60.06"/>
<path style="fill:#987FC9;" d="M235.714,343.092c-32.309-7.521-52.404-39.809-44.883-72.118c5.63-24.185,25.138-41.523,48.144-45.56
	c-31.155-5.424-61.49,14.374-68.749,45.56c-7.521,32.309,12.574,64.597,44.883,72.118c8.124,1.891,16.245,2.033,23.973,0.677
	C237.96,343.574,236.837,343.354,235.714,343.092z"/>
<circle style="fill:#AA8DD8;" cx="322.73" cy="324.056" r="60.06"/>
<path style="fill:#987FC9;" d="M329.456,382.553c-32.309-7.521-52.404-39.809-44.883-72.118c5.63-24.185,25.138-41.523,48.144-45.56
	c-31.155-5.424-61.49,14.374-68.749,45.56c-7.521,32.309,12.574,64.597,44.883,72.118c8.124,1.891,16.245,2.033,23.973,0.677
	C331.702,383.035,330.58,382.815,329.456,382.553z"/>
<g>
</g>
<g>
</g>
<g>
</g>
<g>
</g>
<g>
</g>
<g>
</g>
<g>
</g>
<g>
</g>
<g>
</g>
<g>
</g>
<g>
</g>
<g>
</g>
<g>
</g>
<g>
</g>
<g>
</g>
</svg>
