<svg id="Capa_1" enable-background="new 0 0 512 512" height="512" viewBox="0 0 512 512" width="512" xmlns="http://www.w3.org/2000/svg"><path d="m169.295 155.079c-29.335 29.335-79.318 28.649-94.212 27.72-2.505-.156-4.507-2.158-4.663-4.663-.93-14.895-1.616-64.877 27.72-94.212 34.764-34.764 98.523-27.368 98.523-27.368s7.396 63.759-27.368 98.523z" fill="#62c136"/><path d="m196.705 56.956c-.129.1-.261.196-.39.296.227-.454.347-.697.347-.697s-63.76-7.396-98.523 27.368c-3.57 3.57-6.688 7.448-9.422 11.529 11.753 8.915 26.529 17.591 42.964 21.539 3.316.796 5.017 4.471 3.393 7.47-8.513 15.718-15.865 34.321-20.921 56.292 18.701-3.167 39.759-10.291 55.142-25.674 33.159-33.159 27.961-92.696 27.41-98.123z" fill="#5cad32"/><path d="m159.131 100.629c-41.486 0-76.344-35.828-86.219-47.017-1.661-1.882-1.661-4.713 0-6.595 9.875-11.189 44.733-47.017 86.219-47.017 49.164 0 89.018 50.315 89.018 50.315s-39.854 50.314-89.018 50.314z" fill="#98db7c"/><path d="m239.774 41.027c-.001-.001-.001-.002-.002-.002-3.473-3.555-7.931-7.82-13.214-12.242-11.013 12.495-23.301 23.793-36.926 33.423-5.817 4.112-12.082 9.108-18.469 15.109-3.236 3.041-7.515 4.734-11.955 4.734h-.077c-35.673 0-66.439-26.486-80.641-41.024-2.309 2.364-4.182 4.413-5.566 5.98-1.671 1.893-1.677 4.722-.006 6.615 9.375 10.619 41.209 43.377 79.853 46.727 2.097.244 4.251.283 6.359.283 49.164 0 89.018-50.315 89.018-50.315s-3.004-3.792-8.374-9.288z" fill="#82d361"/><path d="m119.15 265.279c0 109.256 48.942 162.713 82.741 186.604 16.878 11.93 31.707 26.416 44.599 42.57 7.413 9.29 18.399 17.547 34.028 17.547s26.615-8.258 34.028-17.547c12.891-16.155 27.721-30.641 44.599-42.57 33.799-23.89 82.741-77.347 82.741-186.604s-48.942-162.713-82.741-186.604c-16.878-11.93-31.707-26.416-44.599-42.57-7.413-9.29-18.399-17.547-34.028-17.547s-26.615 8.258-34.028 17.547c-12.892 16.155-27.721 30.641-44.599 42.57-33.799 23.89-82.741 77.347-82.741 186.604z" fill="#ffe55a"/><path d="m359.145 78.675c-16.878-11.929-31.707-26.416-44.599-42.57-7.413-9.29-18.399-17.547-34.028-17.547-4.461 0-8.53.691-12.259 1.868 9.337 2.948 16.471 9.041 21.769 15.68 12.892 16.155 27.721 30.641 44.599 42.57 33.799 23.89 82.742 77.347 82.742 186.604 0 109.256-48.942 162.713-82.742 186.603-16.878 11.93-31.707 26.416-44.599 42.571-5.298 6.639-12.432 12.732-21.769 15.68 3.729 1.177 7.799 1.868 12.259 1.868 15.629 0 26.615-8.258 34.028-17.547 12.891-16.155 27.721-30.641 44.599-42.571 33.799-23.89 82.742-77.347 82.742-186.603 0-109.259-48.942-162.716-82.742-186.606z" fill="#ffd91d"/><g fill="#f9cf1e"><ellipse cx="399.808" cy="298.565" rx="13.126" ry="13.126" transform="matrix(.973 -.23 .23 .973 -57.901 99.844)"/><circle cx="348.842" cy="312.503" r="13.126"/><circle cx="377.607" cy="356.091" r="13.126"/><ellipse cx="318.948" cy="356.09" rx="13.126" ry="13.126" transform="matrix(.924 -.383 .383 .924 -111.991 149.162)"/><ellipse cx="347.865" cy="396.283" rx="13.126" ry="13.126" transform="matrix(.16 -.987 .987 .16 -99.023 676.179)"/><path d="m314.265 423.289c0 7.249-5.877 13.126-13.126 13.126-7.25 0-13.127-5.877-13.127-13.126s5.877-13.126 13.127-13.126c7.249 0 13.126 5.877 13.126 13.126z"/></g></svg>