<svg height="474pt" viewBox="0 -14 474.81668 474" width="474pt" xmlns="http://www.w3.org/2000/svg"><path d="m172.371094 25.613281h19v95h-19zm0 0" fill="#ccc033"/><path d="m172.371094 25.613281h12v95h-12zm0 0" fill="#99af17"/><path d="m361 264.484375c0 99.6875-80.8125 180.5-180.5 180.5s-180.5-80.8125-180.5-180.5 80.8125-180.5 180.5-180.5 180.5 80.8125 180.5 180.5zm0 0" fill="#ccc033"/><path d="m60 264.484375c0-89.464844 65.09375-163.710937 150.5-178.003906-9.757812-1.628907-19.777344-2.496094-30-2.496094-99.6875 0-180.5 80.8125-180.5 180.5s80.8125 180.5 180.5 180.5c10.222656 0 20.242188-.863281 30-2.496094-85.40625-14.289062-150.5-88.539062-150.5-178.003906zm0 0" fill="#99af17"/><path d="m92.871094 39.457031c-11.117188 0-18.234375-.128906-19.5-.15625-5.519532-.109375-9.910156-4.671875-9.800782-10.195312.113282-5.523438 4.710938-9.902344 10.199219-9.800781 1.46875.023437 148.25 2.671874 213.320313-18.40625 5.253906-1.703126 10.890625 1.175781 12.59375 6.429687s-1.175782 10.894531-6.429688 12.597656c-54.261718 17.578125-157.304687 19.53125-200.382812 19.53125zm0 0" fill="#ccc033"/><g fill="#eacf32"><path d="m123.082031 159.457031c-1.542969-1.582031-4.074219-1.621093-5.65625-.082031-8.5625 8.320312-22.296875 8.121094-30.617187-.4375-8.320313-8.558594-8.121094-22.292969.4375-30.613281 1.585937-1.539063 1.625-4.074219.082031-5.660157-1.539063-1.582031-4.070313-1.617187-5.65625-.082031-10.855469 10.550781-11.882813 27.453125-2.933594 39.207031l-24.609375 23.769532c-1.585937 1.535156-1.632812 4.070312-.097656 5.65625.785156.8125 1.832031 1.222656 2.875 1.222656 1 0 2.003906-.375 2.78125-1.125l24.703125-23.863281c5.273437 4.015625 11.605469 6.03125 17.949219 6.03125 7.449218 0 14.90625-2.78125 20.65625-8.371094 1.589844-1.535156 1.625-4.066406.085937-5.652344zm0 0"/><path d="m142.410156 192.441406c-1.046875 0-2.09375-.410156-2.875-1.222656-1.539062-1.589844-1.492187-4.121094.097656-5.65625l27.335938-26.402344c1.585938-1.535156 4.121094-1.496094 5.65625.097656 1.535156 1.589844 1.492188 4.121094-.097656 5.65625l-27.335938 26.402344c-.78125.75-1.78125 1.125-2.78125 1.125zm0 0"/><path d="m187.847656 173.5c-.144531 0-.289062 0-.4375-.003906-7.917968-.113282-15.316406-3.300782-20.839844-8.980469-5.515624-5.679687-8.496093-13.171875-8.378906-21.089844.113282-7.917969 3.300782-15.316406 8.984375-20.839843 1.582031-1.535157 4.113281-1.5 5.652344.082031 1.542969 1.585937 1.503906 4.121093-.082031 5.65625-4.144532 4.03125-6.472656 9.433593-6.554688 15.214843-.085937 5.785157 2.089844 11.253907 6.117188 15.398438 4.035156 4.144531 9.4375 6.476562 15.21875 6.558594.105468 0 .210937.003906.320312.003906 5.664063 0 11.007813-2.167969 15.078125-6.125 1.585938-1.539062 4.117188-1.507812 5.65625.082031 1.539063 1.582031 1.503907 4.113281-.078125 5.65625-5.578125 5.421875-12.898437 8.386719-20.65625 8.386719zm0 0"/><path d="m227.910156 192.441406c-1.046875 0-2.09375-.410156-2.875-1.222656-1.539062-1.589844-1.492187-4.121094.097656-5.65625l27.335938-26.402344c1.585938-1.535156 4.121094-1.496094 5.65625.097656 1.535156 1.589844 1.492188 4.121094-.097656 5.65625l-27.335938 26.402344c-.78125.75-1.78125 1.125-2.78125 1.125zm0 0"/><path d="m273.347656 173.5c-.144531 0-.289062 0-.4375-.003906-7.917968-.113282-15.316406-3.300782-20.839844-8.980469-5.515624-5.679687-8.496093-13.171875-8.378906-21.089844.113282-7.917969 3.300782-15.316406 8.984375-20.839843 1.582031-1.535157 4.113281-1.5 5.652344.082031 1.542969 1.585937 1.503906 4.121093-.082031 5.65625-4.144532 4.03125-6.472656 9.433593-6.554688 15.214843-.085937 5.785157 2.089844 11.253907 6.117188 15.398438 4.035156 4.144531 9.4375 6.476562 15.21875 6.558594.105468 0 .210937.003906.320312.003906 5.664063 0 11.007813-2.167969 15.078125-6.125 1.585938-1.539062 4.117188-1.507812 5.65625.082031 1.539063 1.582031 1.503907 4.113281-.078125 5.65625-5.578125 5.421875-12.898437 8.386719-20.65625 8.386719zm0 0"/><path d="m182.308594 277.941406c-1.042969 0-2.089844-.410156-2.875-1.222656-1.535156-1.589844-1.492188-4.121094.097656-5.65625l27.335938-26.402344c1.585937-1.535156 4.121093-1.496094 5.65625.097656 1.535156 1.589844 1.492187 4.121094-.097657 5.65625l-27.335937 26.402344c-.777344.75-1.777344 1.125-2.78125 1.125zm0 0"/><path d="m227.746094 259c-.144532 0-.289063 0-.433594-.003906-7.921875-.113282-15.320312-3.300782-20.839844-8.980469-5.519531-5.679687-8.496094-13.171875-8.382812-21.089844.113281-7.917969 3.300781-15.316406 8.984375-20.839843 1.582031-1.535157 4.117187-1.5 5.65625.082031 1.539062 1.585937 1.5 4.121093-.082031 5.65625-4.144532 4.03125-6.476563 9.433593-6.558594 15.214843-.082032 5.785157 2.089844 11.25 6.121094 15.398438 4.03125 4.144531 9.433593 6.476562 15.21875 6.558594 5.789062.015625 11.25-2.089844 15.394531-6.121094 1.585937-1.539062 4.121093-1.507812 5.65625.082031 1.542969 1.582031 1.503906 4.113281-.078125 5.65625-5.578125 5.421875-12.898438 8.386719-20.65625 8.386719zm0 0"/><path d="m96.808594 277.941406c-1.042969 0-2.089844-.410156-2.875-1.222656-1.535156-1.589844-1.492188-4.121094.097656-5.65625l27.335938-26.402344c1.585937-1.535156 4.121093-1.496094 5.65625.097656 1.535156 1.589844 1.492187 4.121094-.097657 5.65625l-27.335937 26.402344c-.777344.75-1.777344 1.125-2.78125 1.125zm0 0"/><path d="m142.246094 259c-.144532 0-.289063 0-.433594-.003906-7.921875-.113282-15.320312-3.300782-20.839844-8.980469-5.519531-5.679687-8.496094-13.171875-8.382812-21.089844.113281-7.917969 3.300781-15.316406 8.984375-20.839843 1.582031-1.535157 4.117187-1.5 5.65625.082031 1.539062 1.585937 1.5 4.121093-.082031 5.65625-4.144532 4.03125-6.476563 9.433593-6.558594 15.214843-.082032 5.785157 2.089844 11.25 6.121094 15.398438 4.03125 4.144531 9.433593 6.476562 15.21875 6.558594 5.792968.015625 11.25-2.089844 15.394531-6.121094 1.585937-1.539062 4.121093-1.507812 5.65625.082031 1.542969 1.582031 1.503906 4.113281-.078125 5.65625-5.578125 5.421875-12.898438 8.386719-20.65625 8.386719zm0 0"/><path d="m77.480469 244.957031c-1.539063-1.582031-4.074219-1.621093-5.65625-.082031-8.558594 8.320312-22.292969 8.125-30.613281-.4375-4.03125-4.144531-6.203126-9.617188-6.121094-15.398438.082031-5.78125 2.410156-11.183593 6.558594-15.214843 1.582031-1.539063 1.621093-4.074219.082031-5.660157-1.542969-1.582031-4.074219-1.617187-5.65625-.082031-5.679688 5.523438-8.871094 12.921875-8.984375 20.839844-.097656 6.714844 2.035156 13.117187 6.046875 18.371094l-24.605469 23.765625c-1.585938 1.535156-1.632812 4.070312-.097656 5.65625.785156.8125 1.832031 1.222656 2.875 1.222656 1 0 2.003906-.375 2.78125-1.125l24.703125-23.863281c5.273437 4.015625 11.605469 6.035156 17.949219 6.035156 7.449218 0 14.90625-2.785156 20.660156-8.371094 1.582031-1.539062 1.617187-4.070312.078125-5.65625zm0 0"/><path d="m100.578125 333.308594c-1.539063-1.585938-4.070313-1.621094-5.652344-.082032-4.074219 3.957032-9.417969 6.125-15.082031 6.125-.105469 0-.210938 0-.316406 0-5.785156-.082031-11.1875-2.414062-15.21875-6.5625-8.320313-8.558593-8.121094-22.292968.4375-30.617187 1.585937-1.539063 1.621094-4.070313.082031-5.652344-1.539063-1.585937-4.070313-1.625-5.65625-.082031-10.855469 10.546875-11.882813 27.449219-2.933594 39.207031l-24.609375 23.769531c-1.585937 1.535157-1.632812 4.066407-.097656 5.65625.785156.8125 1.832031 1.21875 2.875 1.21875 1 0 2.003906-.375 2.78125-1.125l24.699219-23.855468c5.015625 3.832031 11.097656 5.945312 17.523437 6.039062.148438.003906.292969.003906.4375.003906 7.757813 0 15.078125-2.96875 20.652344-8.386718 1.585938-1.539063 1.621094-4.070313.078125-5.65625zm0 0"/><path d="m113.910156 366.289062c-1.046875 0-2.09375-.40625-2.875-1.21875-1.539062-1.589843-1.492187-4.121093.097656-5.65625l27.335938-26.40625c1.585938-1.535156 4.121094-1.492187 5.65625.101563 1.535156 1.589844 1.492188 4.121094-.097656 5.65625l-27.335938 26.402344c-.78125.746093-1.78125 1.121093-2.78125 1.121093zm0 0"/><path d="m159.339844 347.335938c-7.734375 0-15.460938-3-21.265625-8.96875-11.394531-11.726563-11.125-30.535157.601562-41.929688 1.582031-1.539062 4.113281-1.503906 5.652344.082031 1.542969 1.585938 1.507813 4.117188-.078125 5.65625-8.5625 8.316407-8.757812 22.050781-.4375 30.617188 8.316406 8.554687 22.050781 8.753906 30.613281.433593 1.585938-1.535156 4.117188-1.503906 5.65625.082032 1.539063 1.585937 1.503907 4.117187-.078125 5.65625-5.757812 5.589844-13.214844 8.371094-20.664062 8.371094zm0 0"/><path d="m199.410156 366.289062c-1.046875 0-2.09375-.40625-2.875-1.21875-1.539062-1.589843-1.492187-4.121093.097656-5.65625l27.335938-26.40625c1.585938-1.535156 4.121094-1.492187 5.65625.101563 1.535156 1.589844 1.492188 4.121094-.097656 5.65625l-27.335938 26.402344c-.78125.746093-1.78125 1.121093-2.78125 1.121093zm0 0"/><path d="m244.839844 347.335938c-7.734375 0-15.460938-3-21.265625-8.96875-11.394531-11.726563-11.125-30.535157.601562-41.929688 1.582031-1.539062 4.117188-1.503906 5.652344.082031 1.542969 1.585938 1.507813 4.117188-.078125 5.65625-8.5625 8.316407-8.757812 22.050781-.4375 30.617188 8.316406 8.554687 22.054688 8.753906 30.613281.433593 1.585938-1.535156 4.117188-1.503906 5.65625.082032 1.539063 1.585937 1.503907 4.117187-.078125 5.65625-5.757812 5.589844-13.214844 8.371094-20.664062 8.371094zm0 0"/><path d="m279.058594 366.289062c-1.042969 0-2.089844-.40625-2.875-1.21875-1.535156-1.589843-1.492188-4.121093.097656-5.65625l27.335938-26.40625c1.589843-1.535156 4.121093-1.492187 5.65625.101563 1.535156 1.589844 1.492187 4.121094-.097657 5.65625l-27.335937 26.402344c-.777344.746093-1.777344 1.121093-2.78125 1.121093zm0 0"/><path d="m324.496094 347.351562c-.144532 0-.289063 0-.433594-.003906-7.917969-.113281-15.320312-3.300781-20.839844-8.980468-11.394531-11.726563-11.125-30.535157.597656-41.929688 1.585938-1.539062 4.117188-1.503906 5.65625.082031 1.542969 1.585938 1.503907 4.117188-.078124 5.65625-8.5625 8.316407-8.757813 22.050781-.4375 30.617188 4.027343 4.144531 9.433593 6.472656 15.214843 6.558593 5.792969-.011718 11.25-2.09375 15.398438-6.125 1.582031-1.535156 4.117187-1.507812 5.65625.082032 1.539062 1.582031 1.503906 4.113281-.082031 5.65625-5.574219 5.417968-12.894532 8.386718-20.652344 8.386718zm0 0"/><path d="m264.960938 277.941406c-1.046876 0-2.09375-.410156-2.875-1.222656-1.539063-1.589844-1.492188-4.121094.097656-5.65625l27.335937-26.402344c1.585938-1.535156 4.117188-1.496094 5.65625.097656 1.535157 1.589844 1.488281 4.121094-.101562 5.65625l-27.335938 26.402344c-.777343.75-1.777343 1.125-2.777343 1.125zm0 0"/><path d="m310.398438 259c-.144532 0-.289063 0-.4375-.003906-7.917969-.113282-15.320313-3.300782-20.839844-8.980469-5.515625-5.679687-8.496094-13.171875-8.382813-21.089844.117188-7.917969 3.304688-15.316406 8.984375-20.839843 1.585938-1.535157 4.117188-1.5 5.65625.082031 1.542969 1.585937 1.503906 4.121093-.082031 5.65625-4.144531 4.03125-6.476563 9.433593-6.558594 15.214843-.082031 5.785157 2.089844 11.253907 6.121094 15.398438s9.4375 6.476562 15.21875 6.558594c5.785156.015625 11.25-2.089844 15.398437-6.121094 1.582032-1.539062 4.117188-1.507812 5.65625.082031 1.539063 1.582031 1.503907 4.113281-.082031 5.65625-5.574219 5.421875-12.894531 8.386719-20.652343 8.386719zm0 0"/><path d="m180.148438 439.8125c-1.046876 0-2.097657-.410156-2.878907-1.226562-1.535156-1.589844-1.488281-4.125.105469-5.652344l18.097656-17.429688c1.589844-1.535156 4.121094-1.484375 5.65625.105469 1.53125 1.59375 1.484375 4.125-.105468 5.65625l-18.097657 17.429687c-.777343.746094-1.777343 1.117188-2.777343 1.117188zm0 0"/><path d="m216.339844 429.835938c-7.734375 0-15.460938-3-21.265625-8.96875-11.394531-11.726563-11.125-30.535157.601562-41.929688 1.582031-1.539062 4.113281-1.503906 5.652344.082031 1.542969 1.585938 1.507813 4.117188-.078125 5.65625-8.5625 8.316407-8.757812 22.050781-.4375 30.617188 8.316406 8.558593 22.054688 8.75 30.613281.433593 1.585938-1.535156 4.117188-1.503906 5.65625.082032 1.539063 1.585937 1.503907 4.117187-.078125 5.65625-5.757812 5.589844-13.214844 8.371094-20.664062 8.371094zm0 0"/><path d="m151.578125 418.808594c-1.539063-1.585938-4.070313-1.621094-5.652344-.082032-4.148437 4.03125-9.617187 6.253907-15.398437 6.125-5.785156-.082031-11.1875-2.414062-15.21875-6.5625-8.320313-8.558593-8.121094-22.292968.4375-30.617187 1.585937-1.539063 1.621094-4.070313.082031-5.652344-1.539063-1.585937-4.070313-1.621093-5.65625-.082031-11.722656 11.394531-11.992187 30.203125-.601563 41.929688 5.523438 5.679687 12.921876 8.867187 20.839844 8.980468.148438.003906.292969.003906.4375.003906 7.757813 0 15.078125-2.96875 20.652344-8.386718 1.585938-1.539063 1.621094-4.070313.078125-5.65625zm0 0"/><path d="m277.222656 417.78125c-1.335937 0-2.636718-.667969-3.398437-1.878906-7.34375-11.75-5.453125-27.292969 4.496093-36.960938 1.585938-1.539062 4.117188-1.507812 5.65625.082032 1.542969 1.582031 1.503907 4.113281-.078124 5.652343-7.265626 7.0625-8.648438 18.410157-3.289063 26.984375 1.171875 1.875.601563 4.339844-1.269531 5.511719-.660156.410156-1.394532.609375-2.117188.609375zm0 0"/></g><path d="m152.871094 24.457031c-11.117188 0-18.234375-.128906-19.5-.15625-3.730469-.074219-6.9375-2.1875-8.597656-5.25-29.457032.644531-50.453126.261719-51.003907.253907-5.488281-.101563-10.085937 4.277343-10.199219 9.800781-.109374 5.523437 4.28125 10.085937 9.800782 10.195312 1.265625.027344 8.382812.15625 19.5.15625 43.082031 0 146.121094-1.953125 200.382812-19.53125 2.054688-.667969 3.742188-1.941406 4.9375-3.554687-52.511718 7.078125-114.382812 8.085937-145.320312 8.085937zm0 0" fill="#99af17"/><path d="m146.28125 418.445312c-.121094.09375-.246094.175782-.355469.28125-4.144531 4.03125-9.613281 6.253907-15.398437 6.125-5.785156-.082031-11.183594-2.414062-15.214844-6.5625-7.082031-7.285156-7.96875-18.308593-2.804688-26.5625-1.929687-1.9375-3.8125-3.921874-5.652343-5.945312-8.324219 11.445312-7.472657 27.59375 2.71875 38.082031 5.523437 5.679688 12.921875 8.871094 20.839843 8.980469.148438.003906.292969.007812.4375.007812 7.757813 0 15.078126-2.96875 20.652344-8.390624.65625-.636719 1.03125-1.445313 1.152344-2.289063-2.152344-1.195313-4.28125-2.441406-6.375-3.726563zm0 0" fill="#ccc033"/><path d="m79.410156 347.347656c.148438.003906.292969.003906.4375.003906.089844 0 .179688-.007812.265625-.007812-1.417969-2.742188-2.78125-5.523438-4.0625-8.34375-4.445312-.78125-8.53125-2.910156-11.742187-6.207031-8.09375-8.332031-8.101563-21.546875-.207032-29.917969-.539062-2.480469-1.023437-4.980469-1.457031-7.496094-1.21875-.210937-2.519531.132813-3.472656 1.0625-10.855469 10.546875-11.882813 27.449219-2.933594 39.203125l-24.609375 23.769531c-1.585937 1.535157-1.632812 4.070313-.097656 5.65625.785156.8125 1.832031 1.222657 2.875 1.222657 1 0 2.003906-.375 2.78125-1.125l24.699219-23.855469c5.015625 3.828125 11.101562 5.941406 17.523437 6.035156zm0 0" fill="#ccc033"/><path d="m60.097656 258.789062c.085938-2.726562.226563-5.4375.433594-8.132812-6.832031 1.207031-14.132812-.875-19.320312-6.21875-4.03125-4.144531-6.203126-9.617188-6.121094-15.398438.082031-5.78125 2.410156-11.183593 6.558594-15.214843 1.582031-1.539063 1.621093-4.074219.082031-5.660157-1.542969-1.582031-4.074219-1.617187-5.65625-.082031-5.679688 5.523438-8.871094 12.921875-8.984375 20.839844-.097656 6.714844 2.035156 13.117187 6.046875 18.371094l-24.605469 23.765625c-1.585938 1.535156-1.632812 4.070312-.097656 5.65625.785156.8125 1.832031 1.222656 2.875 1.222656 1 0 2.003906-.375 2.78125-1.125l24.703125-23.863281c5.273437 4.015625 11.605469 6.035156 17.949219 6.035156 1.121093.003906 2.238281-.070313 3.355468-.195313zm0 0" fill="#ccc033"/><path d="m56.910156 192.441406c1 0 2-.375 2.78125-1.125l24.703125-23.863281c.878907.671875 1.796875 1.265625 2.730469 1.824219 1.414062-2.269532 2.871094-4.5 4.382812-6.703125-1.6875-.972657-3.277343-2.171875-4.699218-3.636719-8.320313-8.558594-8.121094-22.292969.4375-30.613281 1.585937-1.539063 1.625-4.074219.082031-5.660157-1.539063-1.582031-4.070313-1.617187-5.65625-.082031-10.855469 10.550781-11.882813 27.453125-2.933594 39.207031l-24.609375 23.769532c-1.585937 1.535156-1.632812 4.070312-.097656 5.65625.785156.816406 1.832031 1.226562 2.878906 1.226562zm0 0" fill="#ccc033"/><path d="m294.5 445.609375c96.871094 0 175.914062-76.3125 180.308594-172.09375.210937-4.574219-3.421875-8.40625-7.996094-8.40625h-344.621094c-4.578125 0-8.207031 3.832031-7.996094 8.40625 4.390626 95.785156 83.433594 172.09375 180.304688 172.09375zm0 0" fill="#ffdf74"/><path d="m406.882812 388.480469c-1.578124 0-3.15625-.617188-4.332031-1.847657-2.292969-2.394531-2.210937-6.191406.179688-8.484374 26.523437-25.402344 43.328125-59.386719 47.320312-95.695313.363281-3.296875 3.324219-5.671875 6.621094-5.308594 3.292969.363281 5.671875 3.324219 5.308594 6.621094-4.300781 39.105469-22.394531 75.703125-50.945313 103.050781-1.164062 1.113282-2.660156 1.664063-4.152344 1.664063zm0 0" fill="#fce575"/><path d="m294.5 402.859375c75.957031 0 137.75-61.796875 137.75-137.75h-275.5c0 75.953125 61.792969 137.75 137.75 137.75zm0 0" fill="#ffd551"/><path d="m354.5 415.609375c-89.464844 0-163.722656-65.089844-178.011719-150.5h-54.296875c-4.578125 0-8.207031 3.835937-7.996094 8.40625 4.390626 95.785156 83.4375 172.09375 180.308594 172.09375 41.058594 0 78.917969-13.714844 109.25-36.8125-15.660156 4.429687-32.179687 6.8125-49.253906 6.8125zm0 0" fill="#ffd551"/><path d="m287.261719 402.667969c-57.449219-23.078125-100.28125-74.839844-110.773438-137.558594h-19.738281c0 73.527344 57.90625 133.78125 130.511719 137.558594zm0 0" fill="#ffc34c"/><path d="m294.5 383.859375c65.476562 0 118.75-53.273437 118.75-118.75h-237.5c0 65.476563 53.273438 118.75 118.75 118.75zm0 0" fill="#ffb74b"/><path d="m295.675781 320.289062c-.800781-.808593-2.039062-.792968-2.8125.03125-8.46875 8.996094-8.074219 16.167969-8.074219 16.167969h.03125c-.015624.332031-.019531.664063-.015624 1 .097656 7 4.519531 12.632813 9.878906 12.574219 5.359375-.054688 9.625-5.773438 9.527344-12.773438-.003907-.335937-.019532-.667968-.046876-1h.03125s.195313-7.179687-8.519531-16zm0 0" fill="#fcda4f"/><path d="m339.09375 306.917969c-1.136719-.003907-2 .878906-1.96875 2.015625.378906 12.34375 5.726562 17.136718 5.726562 17.136718l.019532-.019531c.222656.242188.453125.484375.695312.71875 5.019532 4.878907 12.128906 5.734375 15.878906 1.90625s2.71875-10.890625-2.300781-15.773437c-.238281-.234375-.484375-.457032-.734375-.671875l.019532-.023438c.003906 0-4.9375-5.214843-17.335938-5.289062zm0 0" fill="#fcda4f"/><path d="m246.878906 307.140625c1.136719-.003906 2 .878906 1.96875 2.011719-.378906 12.347656-5.726562 17.140625-5.726562 17.140625l-.019532-.019531c-.222656.242187-.457031.480468-.695312.714843-5.019531 4.882813-12.128906 5.738281-15.878906 1.910157-3.75-3.828126-2.722656-10.890626 2.296875-15.773438.242187-.234375.488281-.460938.738281-.671875l-.019531-.023437c-.003907 0 4.9375-5.214844 17.335937-5.289063zm0 0" fill="#fcda4f"/><path d="m367.960938 278.082031c-1.097657.289063-1.703126 1.367188-1.375 2.453125 3.554687 11.832032 9.964843 15.074219 9.964843 15.074219l.011719-.027344c.28125.179688.566406.351563.859375.515625 6.109375 3.417969 13.199219 2.402344 15.828125-2.269531 2.632812-4.667969-.191406-11.21875-6.300781-14.636719-.296875-.164062-.589844-.316406-.886719-.460937l.011719-.027344c.003906 0-6.117188-3.757813-18.113281-.621094zm0 0" fill="#fcda4f"/><path d="m222.199219 280.175781c.296875-1.09375-.332031-2.160156-1.433594-2.421875-12.027344-2.832031-18.039063 1.097656-18.039063 1.097656l.015626.023438c-.292969.152344-.585938.316406-.871094.488281-6.015625 3.582031-8.679688 10.226563-5.953125 14.84375 2.726562 4.613281 9.8125 5.445313 15.828125 1.859375.289062-.171875.570312-.351562.84375-.535156l.015625.027344c-.003907-.003906 6.3125-3.425782 9.59375-15.382813zm0 0" fill="#fcda4f"/><path d="m226.058594 110.933594c0 9.664062-7.832032 17.5-17.5 17.5-9.664063 0-17.5-7.835938-17.5-17.5 0-9.667969 7.835937-17.5 17.5-17.5 9.667968 0 17.5 7.832031 17.5 17.5zm0 0" fill="#99af17"/></svg>