<svg height="512pt" viewBox="0 -96 512 512" width="512pt" xmlns="http://www.w3.org/2000/svg"><g fill="#82b1ff"><path d="m32 0h448c17.671875 0 32 14.328125 32 32s-14.328125 32-32 32h-448c-17.671875 0-32-14.328125-32-32s14.328125-32 32-32zm0 0"/><path d="m32 128h448c17.671875 0 32 14.328125 32 32s-14.328125 32-32 32h-448c-17.671875 0-32-14.328125-32-32s14.328125-32 32-32zm0 0"/><path d="m32 256h448c17.671875 0 32 14.328125 32 32s-14.328125 32-32 32h-448c-17.671875 0-32-14.328125-32-32s14.328125-32 32-32zm0 0"/></g></svg>