<svg id="Capa_1" enable-background="new 0 0 512 512" height="512" viewBox="0 0 512 512" width="512" xmlns="http://www.w3.org/2000/svg"><g><circle cx="255.998" cy="304.203" fill="#fe9738" r="207.797"/><path d="m463.799 304.206c0 114.762-93.039 207.791-207.801 207.791-22.031 0-43.259-3.425-63.181-9.781 13.947 2.952 28.407 4.505 43.228 4.505 114.761 0 207.801-93.039 207.801-207.801 0-92.731-60.754-171.278-144.619-198.009 94.016 19.891 164.572 103.355 164.572 203.295z" fill="#fe860a"/><path d="m330.892 106.786c8.382-4.461 15.947-10.569 22.331-17.554 9.973-10.913 16.639-24.496 18.252-39.201.178-1.627-.621-3.209-2.037-4.028-12.63-7.308-27.302-10.016-41.815-8.566-11.799 1.178-24.028 4.559-33.905 11.377-15.73 10.858-28.494 27.042-32.54 46.093-.603 2.841-2.981 10.185.958 12.33 3.634 1.979 7.455 3.611 11.395 4.874 18.477 5.921 40.157 3.831 57.361-5.325z" fill="#00c27a"/><path d="m371.48 50.03c-1.615 14.708-8.28 28.284-18.256 39.196-6.387 6.994-13.947 13.103-22.329 17.557-17.207 9.154-38.888 11.252-57.36 5.328-3.939-1.265-7.765-2.9-11.396-4.875-1.43-.782-2.263-2.324-2.129-3.939.103-1.275.206-2.602.247-2.911.021-.144.031-.278.062-.422 18.071 5.256 38.939 3.014 55.601-5.862 8.382-4.453 15.942-10.563 22.329-17.546 9.329-10.203 15.767-22.751 17.876-36.358 4.618 1.419 9.082 3.353 13.319 5.801 1.408.822 2.21 2.406 2.036 4.031z" fill="#08b865"/><path d="m237.55 117.689c-2.673-18.298-6.26-67.814-2.918-98.159 1.505-13.663 15.027-22.609 28.156-18.538.188.058.376.116.564.174 10.513 3.231 16.936 13.814 15.028 24.645-3.367 19.114-7.737 64.778-8.047 89.646-.113 9.048-7.427 16.345-16.476 16.345-8.188-.001-15.123-6.011-16.307-14.113z" fill="#d77f4a"/><path d="m278.379 25.809c-3.363 19.12-7.734 64.776-8.043 89.645-.113 9.051-7.426 16.343-16.477 16.343-3.806 0-7.354-1.296-10.162-3.507 3.805-2.983 6.264-7.621 6.325-12.836.309-24.869 4.68-70.525 8.043-89.645 1.707-9.658-3.219-19.12-11.756-23.337 4.865-2.551 10.707-3.271 16.477-1.481.185.062.381.113.566.175 10.511 3.229 16.94 13.812 15.027 24.643z" fill="#c86d36"/><g><path d="m253.45 169.05c-10.696 0-21.388-3.488-29.63-10.502-3.244-2.76-3.637-7.628-.876-10.874 2.76-3.243 7.629-3.638 10.874-.876 10.978 9.34 29.304 9.083 40.017-.564 3.164-2.851 8.041-2.596 10.895.57 2.85 3.166 2.595 8.043-.569 10.895-8.391 7.555-19.553 11.351-30.711 11.351z" fill="#e57917"/></g></g></svg>