<svg id="Capa_1" enable-background="new 0 0 510 510" height="512" viewBox="0 0 510 510" width="512" xmlns="http://www.w3.org/2000/svg" xmlns:xlink="http://www.w3.org/1999/xlink"><linearGradient id="SVGID_1_" gradientTransform="matrix(.707 .707 -.707 .707 255.707 -105.332)" gradientUnits="userSpaceOnUse" x1="235.531" x2="280.433" y1="61.692" y2="143.899"><stop offset="0" stop-color="#6b0"/><stop offset="1" stop-color="#0b799d"/></linearGradient><linearGradient id="lg1"><stop offset="0" stop-color="#b9dd39"/><stop offset="1" stop-color="#90cc1c"/></linearGradient><linearGradient id="SVGID_2_" gradientTransform="matrix(.707 .707 -.707 .707 255.707 -105.332)" gradientUnits="userSpaceOnUse" x1="212.174" x2="194.675" xlink:href="#lg1" y1="73.455" y2="113.354"/><linearGradient id="lg2"><stop offset="0" stop-color="#6b0" stop-opacity="0"/><stop offset="1" stop-color="#6b0"/></linearGradient><linearGradient id="SVGID_3_" gradientTransform="matrix(.642 .767 -.767 .642 276.314 -108.128)" gradientUnits="userSpaceOnUse" x1="143.304" x2="245.854" xlink:href="#lg2" y1="148.845" y2="200.591"/><linearGradient id="SVGID_4_" gradientTransform="matrix(-.707 -.707 -.707 .707 533.216 172.177)" gradientUnits="userSpaceOnUse" x1="96.045" x2="78.545" xlink:href="#lg1" y1="73.455" y2="113.354"/><linearGradient id="SVGID_5_" gradientTransform="matrix(-.767 -.642 -.642 .767 536.012 151.57)" gradientUnits="userSpaceOnUse" x1="27.631" x2="130.182" xlink:href="#lg2" y1="159.132" y2="210.878"/><linearGradient id="SVGID_6_" gradientTransform="matrix(.707 .707 -.707 .707 255.707 -105.332)" gradientUnits="userSpaceOnUse" x1="314.251" x2="355.199" xlink:href="#lg1" y1="117.474" y2="227.195"/><linearGradient id="SVGID_7_" gradientTransform="matrix(-.707 -.707 -.707 .707 514.019 152.98)" gradientUnits="userSpaceOnUse" x1="-23.115" x2="91.331" xlink:href="#lg2" y1="206.155" y2="263.903"/><linearGradient id="SVGID_8_" gradientTransform="matrix(.707 .707 -.707 .707 255.707 -105.332)" gradientUnits="userSpaceOnUse" x1="174.233" x2="174.233" xlink:href="#lg1" y1="173.495" y2="388.658"/><linearGradient id="SVGID_9_" gradientTransform="matrix(.707 .707 -.707 .707 255.707 -105.332)" gradientUnits="userSpaceOnUse" x1="120.163" x2="234.609" xlink:href="#lg2" y1="206.155" y2="263.903"/><linearGradient id="SVGID_10_" gradientTransform="matrix(.707 .707 -.707 .707 255.707 -105.332)" gradientUnits="userSpaceOnUse" x1="254.293" x2="254.293" y1="117.741" y2="286.786"><stop offset="0" stop-color="#07485e" stop-opacity="0"/><stop offset=".3884" stop-color="#05394a" stop-opacity=".388"/><stop offset="1" stop-color="#03232e"/></linearGradient><linearGradient id="SVGID_11_" gradientTransform="matrix(.707 .707 -.707 .707 255.707 -105.332)" gradientUnits="userSpaceOnUse" x1="164.788" x2="357.069" y1="260.96" y2="463.052"><stop offset="0" stop-color="#ffda2d"/><stop offset="1" stop-color="#fdbf00"/></linearGradient><linearGradient id="lg3"><stop offset="0" stop-color="#ff9100" stop-opacity="0"/><stop offset="1" stop-color="#ff9100"/></linearGradient><linearGradient id="SVGID_12_" gradientTransform="matrix(.707 .707 -.707 .707 255.707 -105.332)" gradientUnits="userSpaceOnUse" x1="254.612" x2="256.574" xlink:href="#lg3" y1="309.78" y2="31.823"/><linearGradient id="SVGID_13_" gradientTransform="matrix(.707 .707 -.707 .707 255.707 -105.332)" gradientUnits="userSpaceOnUse" x1="255.727" x2="266.192" xlink:href="#lg3" y1="402.282" y2="115.169"/><linearGradient id="SVGID_14_" gradientTransform="matrix(.707 .707 -.707 .707 255.707 -105.332)" gradientUnits="userSpaceOnUse" x1="271.599" x2="302.338" xlink:href="#lg3" y1="478.038" y2="152.337"/><linearGradient id="SVGID_15_" gradientTransform="matrix(.707 .707 -.707 .707 255.707 -105.332)" gradientUnits="userSpaceOnUse" x1="305.263" x2="301.992" xlink:href="#lg3" y1="536.394" y2="322.53"/><linearGradient id="SVGID_16_" gradientTransform="matrix(-.707 -.707 -.707 .707 616.332 255.293)" gradientUnits="userSpaceOnUse" x1="256.027" x2="257.989" xlink:href="#lg3" y1="309.78" y2="31.823"/><linearGradient id="SVGID_17_" gradientTransform="matrix(-.707 -.707 -.707 .707 616.332 255.293)" gradientUnits="userSpaceOnUse" x1="257.142" x2="267.606" xlink:href="#lg3" y1="402.282" y2="115.169"/><linearGradient id="SVGID_18_" gradientTransform="matrix(-.707 -.707 -.707 .707 616.332 255.293)" gradientUnits="userSpaceOnUse" x1="273.013" x2="303.752" xlink:href="#lg3" y1="478.038" y2="152.337"/><linearGradient id="SVGID_19_" gradientTransform="matrix(-.707 -.707 -.707 .707 616.332 255.293)" gradientUnits="userSpaceOnUse" x1="306.677" x2="303.407" xlink:href="#lg3" y1="536.394" y2="322.53"/><linearGradient id="SVGID_20_" gradientTransform="matrix(.707 .707 -.707 .707 255.707 -105.332)" gradientUnits="userSpaceOnUse" x1="254.293" x2="254.293" xlink:href="#lg3" y1="462.618" y2="559.845"/><g><g><path d="m394.252 169.037c-30.616 30.616-67.364 43.506-82.08 28.791s-1.825-51.464 28.791-82.08 67.364-43.506 82.08-28.791c14.715 14.716 1.825 51.464-28.791 82.08z" fill="url(#SVGID_1_)"/><g><g><path d="m345.536 29.606c-9.624-11.809-20.865-21.497-33.135-29.02-3.207-1.966-6.996 1.372-5.457 4.805 28.123 62.739 13.616 137.932-40.352 183.084-27 22.59-59.658 34.121-92.667 35.164 46.234 29.07 107.544 27.043 152.172-8.924 56.436-45.483 65.23-128.926 19.439-185.109z" fill="url(#SVGID_2_)"/><path d="m299.533 195.263c55.593-46.513 62.954-129.286 16.442-184.88-2.677-3.2-5.481-6.23-8.387-9.108-.939 1.032-1.34 2.561-.643 4.115 28.123 62.739 13.616 137.932-40.352 183.084-23.493 19.656-51.27 30.935-79.834 34.221 38.425 8.541 80.249-.22 112.774-27.432z" fill="url(#SVGID_3_)"/></g><g><path d="m480.394 164.464c11.809 9.624 21.497 20.865 29.02 33.135 1.966 3.207-1.372 6.996-4.805 5.457-62.739-28.123-137.932-13.616-183.084 40.352-22.59 27-34.121 59.658-35.164 92.667-29.07-46.234-27.043-107.544 8.924-152.172 45.483-56.435 128.926-65.23 185.109-19.439z" fill="url(#SVGID_4_)"/><path d="m314.737 210.467c46.513-55.593 129.286-62.954 184.88-16.442 3.2 2.677 6.23 5.481 9.108 8.386-1.032.939-2.561 1.34-4.115.643-62.739-28.123-137.932-13.616-183.084 40.352-19.656 23.493-30.935 51.27-34.221 79.834-8.541-38.424.22-80.248 27.432-112.773z" fill="url(#SVGID_5_)"/></g></g><g><g><path d="m468.87 220.162c12.175 11.866 21.834 25.319 28.984 39.702 1.869 3.759-2.217 7.641-5.881 5.591-66.961-37.464-151.98-28.771-207.508 26.756-27.78 27.78-43.827 62.944-48.249 99.533-27.744-54.268-19.43-122.221 24.964-168.274 56.137-58.236 149.763-59.764 207.69-3.308z" fill="url(#SVGID_6_)"/><path d="m280.176 254.924c57.2-57.2 149.939-57.2 207.139 0 3.292 3.292 6.383 6.709 9.296 10.223-1.24.942-2.98 1.236-4.638.308-66.961-37.464-151.98-28.771-207.508 26.756-24.172 24.172-39.456 53.934-45.933 85.362-5.694-43.559 8.18-89.185 41.644-122.649z" fill="url(#SVGID_7_)"/></g><g><path d="m289.838 41.13c-11.866-12.175-25.319-21.834-39.702-28.984-3.759-1.869-7.641 2.217-5.591 5.881 37.464 66.961 28.771 151.98-26.756 207.508-27.78 27.78-62.944 43.827-99.533 48.249 54.268 27.744 122.221 19.43 168.274-24.964 58.236-56.137 59.764-149.763 3.308-207.69z" fill="url(#SVGID_8_)"/><path d="m255.076 229.824c57.2-57.2 57.2-149.939 0-207.139-3.292-3.292-6.709-6.383-10.223-9.296-.942 1.24-1.236 2.98-.308 4.638 37.464 66.961 28.771 151.98-26.756 207.508-24.172 24.172-53.934 39.456-85.362 45.933 43.559 5.694 89.185-8.18 122.649-41.644z" fill="url(#SVGID_9_)"/></g></g></g><path d="m457.964 250.815-198.779-198.779c16.818 53.79 7.518 113.392-28.194 158.642-18.169 8.062-37.555 12.345-57.064 12.961 9.573 6.019 19.798 10.683 30.381 14.011-25.276 20.377-55.155 32.4-86.052 36.134 33.519 17.136 72.256 20.51 107.831 10.129-10.381 35.575-7.007 74.313 10.129 107.831 3.734-30.896 15.758-60.776 36.134-86.052 3.327 10.584 7.992 20.809 14.011 30.382.616-19.509 4.899-38.896 12.961-57.064 45.25-35.713 104.852-45.014 158.642-28.195z" fill="url(#SVGID_10_)"/><g><path d="m47.123 462.877c-62.831-62.831-62.831-164.699 0-227.53l47.171-47.171c62.831-62.831 164.699-62.831 227.53 0 62.831 62.831 62.831 164.699 0 227.53l-47.171 47.171c-62.831 62.831-164.699 62.831-227.53 0z" fill="url(#SVGID_11_)"/><g><path d="m321.824 415.706-47.171 47.171c-10.731 10.731-22.607 19.638-35.232 26.7-61.267 34.296-140.208 25.389-192.298-26.7-13.513-13.513-24.126-28.844-31.82-45.194-11.556-24.529-16.565-51.375-15.025-77.915 1.658-28.684 10.953-57 27.893-81.654 5.508-8.019 11.827-15.643 18.952-22.767l47.171-47.171c5.938-5.938 12.23-11.314 18.792-16.128 22.947.167 46.658 2.594 70.659 7.492 79.06 16.128 144.738 55.669 184.258 104.969.617 5.792.936 11.619.936 17.432 0 26.874-6.694 53.754-20.075 77.915-7.117 12.861-16.128 24.938-27.04 35.85z" fill="url(#SVGID_12_)"/><path d="m348.864 379.856c-7.117 12.861-16.128 24.938-27.04 35.85l-47.171 47.171c-10.731 10.731-22.607 19.638-35.232 26.7-61.267 34.296-140.208 25.389-192.298-26.7-13.513-13.513-24.126-28.844-31.82-45.194-11.556-24.529-16.565-51.375-15.025-77.915 1.658-28.684 10.953-57 27.893-81.654 39.187-6.375 82.327-5.716 126.439 3.281 86.15 17.571 156.406 62.952 194.254 118.461z" fill="url(#SVGID_13_)"/><path d="m.278 339.768c38.86-6.16 81.55-5.425 125.197 3.482 73.08 14.907 134.728 49.821 174.851 93.953l-25.673 25.673c-10.731 10.731-22.607 19.638-35.232 26.7-61.267 34.296-140.208 25.389-192.298-26.7-13.513-13.513-24.126-28.844-31.82-45.194-11.556-24.528-16.565-51.374-15.025-77.914z" fill="url(#SVGID_14_)"/><path d="m47.123 462.877c-13.513-13.513-24.126-28.844-31.82-45.194 26.145-.576 53.4 1.79 81.037 7.422 55.884 11.39 105.08 34.49 143.08 64.471-61.266 34.297-140.208 25.39-192.297-26.699z" fill="url(#SVGID_15_)"/></g><g><path d="m94.294 188.176-47.171 47.171c-10.731 10.731-19.638 22.607-26.7 35.233-34.296 61.267-25.389 140.208 26.7 192.298 13.513 13.513 28.844 24.126 45.194 31.82 24.529 11.557 51.375 16.565 77.915 15.025 28.684-1.658 57-10.953 81.654-27.893 8.019-5.508 15.643-11.827 22.767-18.952l47.171-47.171c5.938-5.938 11.314-12.23 16.128-18.792-.167-22.947-2.594-46.658-7.492-70.659-16.128-79.06-55.669-144.738-104.969-184.258-5.792-.617-11.619-.937-17.432-.936-26.874 0-53.754 6.694-77.915 20.075-12.861 7.116-24.938 16.127-35.85 27.039z" fill="url(#SVGID_16_)"/><path d="m130.144 161.136c-12.861 7.117-24.938 16.128-35.85 27.04l-47.171 47.171c-10.731 10.731-19.638 22.607-26.7 35.233-34.296 61.267-25.389 140.208 26.7 192.298 13.513 13.513 28.844 24.126 45.194 31.82 24.529 11.557 51.375 16.565 77.915 15.025 28.684-1.658 57-10.953 81.654-27.893 6.375-39.187 5.716-82.327-3.281-126.439-17.571-86.151-62.952-156.407-118.461-194.255z" fill="url(#SVGID_17_)"/><path d="m170.232 509.722c6.16-38.86 5.425-81.55-3.482-125.197-14.907-73.08-49.821-134.728-93.953-174.851l-25.673 25.673c-10.731 10.731-19.638 22.607-26.7 35.233-34.296 61.267-25.389 140.208 26.7 192.298 13.513 13.513 28.844 24.126 45.194 31.82 24.528 11.555 51.374 16.564 77.914 15.024z" fill="url(#SVGID_18_)"/><path d="m47.123 462.877c13.513 13.513 28.844 24.126 45.194 31.82.576-26.145-1.79-53.4-7.422-81.037-11.39-55.884-34.49-105.08-64.471-143.08-34.297 61.266-25.39 140.208 26.699 192.297z" fill="url(#SVGID_19_)"/></g><path d="m26.91 259.992c-41.672 62.504-34.939 147.733 20.213 202.885 55.152 55.152 140.381 61.886 202.885 20.213z" fill="url(#SVGID_20_)"/></g></g></svg>