<?xml version="1.0" encoding="iso-8859-1"?>
<!-- Generator: Adobe Illustrator 19.0.0, SVG Export Plug-In . SVG Version: 6.00 Build 0)  -->
<svg version="1.1" id="Layer_1" xmlns="http://www.w3.org/2000/svg" xmlns:xlink="http://www.w3.org/1999/xlink" x="0px" y="0px"
	 viewBox="0 0 512 512" style="enable-background:new 0 0 512 512;" xml:space="preserve">
<path style="fill:#23B898;" d="M360.501,43.625c-1.617,0.107-32.619,2.331-63.545,15.429c-6.848-19.896-16.233-38.064-25.137-50.81
	c-7.668-10.973-23.958-10.991-31.637,0c-8.824,12.629-18.186,30.807-25.058,50.844c-30.953-13.129-62.006-15.357-63.626-15.463
	c-14.178-0.955-24.496,13.306-19.165,26.489c18.932,46.813,44.19,80.86,60.067,95.793c4.504,4.235,10.694,6.002,16.623,4.937
	c30.51-5.463,67.976-4.652,93.952,0c5.932,1.065,12.122-0.704,16.623-4.937c33.454-31.464,57.442-89.302,60.067-95.793
	C385.003,56.918,374.663,42.674,360.501,43.625z"/>
<path style="fill:#1DA49C;" d="M360.501,43.625c-1.617,0.107-32.619,2.331-63.545,15.429c-6.848-19.896-16.233-38.064-25.137-50.81
	C268.208,3.078,262.302,0,256,0v167.146c14.709,0.035,29.472,0.563,46.977,3.697c5.932,1.065,12.122-0.704,16.623-4.937
	c33.454-31.464,57.442-89.302,60.067-95.793C385.003,56.918,374.663,42.674,360.501,43.625z"/>
<path style="fill:#FF5E5B;" d="M256,512c-95.7,0-164.764-170.892-164.764-258.089c0-80.863,57.411-118.496,139.049-124.519
	c100.203-7.416,190.478,23.489,190.478,124.519C420.764,340.812,351.848,512,256,512z"/>
<g>
	<path style="fill:#ED3E3C;" d="M256,128.485V512c95.7,0,164.764-170.892,164.764-258.089
		C420.764,162.813,348.588,128.488,256,128.485z"/>
	<circle style="fill:#ED3E3C;" cx="256" cy="260.258" r="16.19"/>
</g>
<g>
	<path style="fill:#D62F2D;" d="M256,244.067v32.379c8.941,0,16.19-7.248,16.19-16.19C272.19,251.315,264.941,244.067,256,244.067z"
		/>
	<circle style="fill:#D62F2D;" cx="319.164" cy="260.258" r="16.19"/>
	<circle style="fill:#D62F2D;" cx="286.784" cy="323.422" r="16.19"/>
</g>
<circle style="fill:#ED3E3C;" cx="256" cy="386.586" r="16.19"/>
<path style="fill:#D62F2D;" d="M256,370.395v32.38c8.941,0,16.19-7.248,16.19-16.19C272.19,377.642,264.941,370.395,256,370.395z"/>
<g>
	<circle style="fill:#ED3E3C;" cx="192.836" cy="260.258" r="16.19"/>
	<circle style="fill:#ED3E3C;" cx="223.62" cy="323.422" r="16.19"/>
</g>
<g>
</g>
<g>
</g>
<g>
</g>
<g>
</g>
<g>
</g>
<g>
</g>
<g>
</g>
<g>
</g>
<g>
</g>
<g>
</g>
<g>
</g>
<g>
</g>
<g>
</g>
<g>
</g>
<g>
</g>
</svg>
