<svg height="459pt" viewBox="0 0 459.9997 459" width="459pt" xmlns="http://www.w3.org/2000/svg"><path d="m345.519531 106.527344c-40.636719-8.171875-81.75 3.746094-115.519531 29.648437-33.773438-25.902343-74.890625-37.820312-115.519531-29.648437-82 16.496094-130.972657 108.523437-109.382813 205.554687 21.59375 97.03125 105.570313 162.320313 187.570313 145.824219 13.378906-2.691406 25.875-7.40625 37.332031-13.808594 11.457031 6.40625 23.953125 11.121094 37.332031 13.808594 82 16.496094 165.980469-48.792969 187.570313-145.824219s-27.382813-189.0625-109.382813-205.554687zm0 0" fill="#ff624b"/><path d="m382.03125 411.535156c-1.632812 0-3.261719-.664062-4.445312-1.96875-2.226563-2.457031-2.042969-6.25.414062-8.476562 26.261719-23.816406 45.253906-57.28125 53.472656-94.21875 10.175782-45.71875 2.992188-91.953125-19.699218-126.84375-1.808594-2.777344-1.019532-6.492188 1.757812-8.300782 2.777344-1.808593 6.492188-1.019531 8.300781 1.757813 24.441407 37.578125 32.222657 87.144531 21.355469 135.992187-8.753906 39.339844-29.042969 75.035157-57.128906 100.503907-1.148438 1.039062-2.589844 1.554687-4.027344 1.554687zm0 0" fill="#ff9079"/><path d="m65.097656 312.082031c-21.21875-95.355469 25.710938-185.875 105.164063-204.628906-18.1875-4.183594-37.035157-4.699219-55.78125-.925781-82 16.492187-130.972657 108.519531-109.382813 205.550781 21.59375 97.03125 105.570313 162.320313 187.570313 145.828125 1.410156-.285156 2.804687-.601562 4.199219-.929688-61.351563-14.113281-115.117188-70.058593-131.769532-144.894531zm0 0" fill="#ff4b34"/><path d="m348.820312 105v.011719c-.800781-5.351563-7.535156-8.363281-7.535156-8.363281s-55.933594-23.460938-100.1875 1.515624l-.027344 10.984376-.007812 2.277343-10.164062.058594-5.792969.039063-.011719-4.609376-.03125-10.980468c-44.253906-24.980469-100.1875-1.515625-100.1875-1.515625s-6.730469 3.011719-7.53125 8.359375v-.007813s-.601562 2.359375.011719 5.035157v-.007813c.832031 5.371094 7.582031 8.585937 7.582031 8.585937s20.289062 9.101563 46.058594 11.210938c-22.582032 20.964844-33.378906 47.359375-33.378906 47.359375s-2.628907 6.886719.589843 11.234375l-.007812-.003906s1.25 2.09375 3.578125 3.550781l-.007813-.007813c4.390625 3.214844 11.4375.71875 11.4375.71875s33.855469-12.859374 56.132813-40.496093c-1.734375 32.3125 11.09375 60.792969 11.09375 60.792969s3.183594 6.65625 8.605468 7.433593h-.011718c2.695312.582031 5.089844-.035156 5.089844-.035156h-.011719c5.410156-.839844 8.511719-7.53125 8.511719-7.53125s12.207031-28.046875 10.382812-59.917969c21.933594 31.382813 60.207031 45.921875 60.207031 45.921875s7.046875 2.492188 11.4375-.71875l-.007812.003907c2.328125-1.457032 3.578125-3.550782 3.578125-3.550782l-.007813.007813c3.222657-4.347657.589844-11.234375.589844-11.234375s-12.117187-29.621094-37.53125-51.035156c27.59375-1.4375 49.957031-11.46875 49.957031-11.46875s6.75-3.214844 7.582032-8.585938v.007812c.613281-2.675781.015624-5.039062.015624-5.039062zm0 0" fill="#ccc033"/><path d="m231.183594 123.542969c-10.191406 0-18.453125-8.261719-18.453125-18.457031v-86.128907c0-10.195312 8.261719-18.457031 18.453125-18.457031 10.195312 0 18.457031 8.265625 18.457031 18.457031v86.128907c0 10.195312-8.261719 18.457031-18.457031 18.457031zm0 0" fill="#ccc033"/><path d="m231.183594 108.777344v-86.128906c0-8.042969 5.15625-14.867188 12.335937-17.394532-3.269531-2.945312-7.585937-4.753906-12.335937-4.753906-10.191406 0-18.453125 8.265625-18.453125 18.457031v86.128907c0 10.195312 8.261719 18.457031 18.453125 18.457031 2.152344 0 4.207031-.386719 6.125-1.0625-3.753906-3.375-6.125-8.257813-6.125-13.703125zm0 0" fill="#99af17"/><path d="m140.875 365.648438c0 9.664062-7.832031 17.5-17.5 17.5-9.664062 0-17.5-7.835938-17.5-17.5 0-9.664063 7.835938-17.5 17.5-17.5 9.667969 0 17.5 7.835937 17.5 17.5zm0 0" fill="#ff4b34"/><path d="m181.265625 403.839844c0 9.664062-7.835937 17.5-17.5 17.5s-17.5-7.835938-17.5-17.5c0-9.664063 7.835937-17.5 17.5-17.5s17.5 7.835937 17.5 17.5zm0 0" fill="#ff4b34"/><path d="m170.617188 174.957031s10.796874-26.394531 33.378906-47.363281c-25.769532-2.109375-46.058594-11.207031-46.058594-11.207031s-6.75-3.21875-7.582031-8.589844v.011719c-.613281-2.675782-.011719-5.039063-.011719-5.039063v.011719c.800781-5.351562 7.53125-8.363281 7.53125-8.363281s15.03125-6.300781 35.664062-8.894531c-35.472656-5.023438-68.664062 8.894531-68.664062 8.894531s-6.730469 3.015625-7.53125 8.363281v-.011719s-.601562 2.363281.011719 5.039063v-.011719c.832031 5.375 7.582031 8.589844 7.582031 8.589844s20.289062 9.097656 46.058594 11.207031c-22.582032 20.96875-33.378906 47.363281-33.378906 47.363281s-2.628907 6.886719.589843 11.234375l-.007812-.007812s1.25 2.09375 3.578125 3.550781l-.007813-.003906c4.390625 3.214843 11.4375.71875 11.4375.71875s6.910157-2.632813 16.527344-8.046875c-.539063-3.707032.882813-7.445313.882813-7.445313zm0 0" fill="#99af17"/></svg>