<svg id="Layer_1" enable-background="new 0 0 510.04 510.04" height="512" viewBox="0 0 510.04 510.04" width="512" xmlns="http://www.w3.org/2000/svg"><g id="XMLID_1679_"><path id="XMLID_1724_" d="m301.353 60.172 5.772 3.963 7.875-4.5 10-11.5-10-19.326c-6.754 9.2-11.473 19.887-13.647 31.363z" fill="#954c20"/><path id="XMLID_1721_" d="m355.256.405-2.309.77c-15.612 5.203-28.69 15.022-37.947 27.634v30.826l9.462 7.191 7.686-6.343c4.456-14.29 15.529-25.93 30.286-30.849l2.31-.771z" fill="#7e3e19"/><path id="XMLID_1718_" d="m453.668 126.38c-36.894-43.041-86.14-66.745-138.668-66.745v450c52.528 0 101.774-23.704 138.668-66.745 75.152-87.679 75.172-228.809 0-316.51z" fill="#00cb75"/><path id="XMLID_1717_" d="m315 59.635c-52.528 0-101.775 23.704-138.668 66.745-47.961 55.954-64.829 132.739-52.434 203.255l115.26 162.377c23.983 11.699 49.458 17.623 75.842 17.623l10-225z" fill="#70d840"/><path id="XMLID_1716_" d="m225 284.635c0 124.264 40.294 225 90 225l15-240-15-210c-49.706 0-90 100.735-90 225z" fill="#ace233"/><path id="XMLID_1713_" d="m315 59.635v450c49.705 0 90-100.736 90-225 0-124.265-40.295-225-90-225z" fill="#70d840"/><path id="XMLID_1712_" d="m0 329.635v15c0 90.982 74.019 165 165 165l10-15.398-10-14.602-135-150z" fill="#70d840"/><path id="XMLID_1709_" d="m300 329.635-135 150v30c90.981 0 165-74.018 165-165v-15z" fill="#00cb75"/><path id="XMLID_1702_" d="m30 329.635.828 30c7.486 67.405 64.803 120 134.172 120l10-84.75-10-65.25z" fill="#ff6326"/><path id="XMLID_1699_" d="m165 329.635v150c69.369 0 126.685-52.595 134.172-120l.828-30z" fill="#ff1f3d"/><g id="XMLID_1692_"><g><path id="XMLID_522_" d="m180 389.635h30v30h-30z" fill="#e20059"/></g></g><g id="XMLID_1681_"><g><path id="XMLID_478_" d="m120 389.635h30v30h-30z" fill="#ff1f3d"/></g></g></g></svg>